# xmcd
#
# Track frame offsets:
#	150
#	23332
#	47259
#	68228
#	87752
#	109416
#	130674
#	153451
#	175252
#	198526
#	219350
#	236450
#
# Disc length: 3442 seconds
#
# Revision: 1
# Processed by: cddbd v1.5.2PL0 Copyright (c) Steve Scherf et al.
# Submitted via: audiograbber 1.83.01
#
DISCID=940d700c
DTITLE=The Cooper Brothers - In From the Cold
DYEAR=2010
DGENRE=Country
TTITLE0=Gunshy
TTITLE1='62 Fairlane
TTITLE2=Jukebox
TTITLE3=Hard Luck Girl
TTITLE4=That's What Makes Us Great
TTITLE5=Never Cease to Amaze
TTITLE6=Paradise Pie
TTITLE7=Our Love Deserves Better
TTITLE8=Love of the Ages
TTITLE9=Tear Down the Walls
TTITLE10=The Way She Shines
TTITLE11=Little Blue Church
EXTD=
EXTT0=
EXTT1=
EXTT2=
EXTT3=
EXTT4=
EXTT5=
EXTT6=
EXTT7=
EXTT8=
EXTT9=
EXTT10=
EXTT11=
PLAYORDER=
